# xmcd
#
# Track frame offsets: 
#        150
#        8280
#        23151
#        46483
#        68991
#        93596
#        115983
#        161716
#        178980
#        213241
#        241864
#        252932
#        264724
#        293299
#        323378
#
# Disc length: 4560 seconds
#
# Revision: 1
# Processed by: cddbd v1.5.1PL2 Copyright (c) Steve Scherf et al.
# Submitted via: ExactAudioCopy v0.95b3
#
DISCID=c511ce0f
DTITLE=Pain of Salvation - Be
DYEAR=2004
DGENRE=Progressive Metal
TTITLE0=Animae Partus
TTITLE1=Deus Nova
TTITLE2=Imago
TTITLE3=Pluvius Aestivus
TTITLE4=Lilium Cruentus
TTITLE5=Nauticus
TTITLE6=Dea Pecuniae
TTITLE7=Vocari Dei
TTITLE8=Diffidentia
TTITLE9=Nihil Morari
TTITLE10=Latericius Valete
TTITLE11=Omni
TTITLE12=Iter Impius
TTITLE13=Martius/Nauticus II
TTITLE14=Animae Partus II
EXTD=YEAR: 2004
EXTT0=
EXTT1=
EXTT2=
EXTT3=
EXTT4=
EXTT5=
EXTT6=
EXTT7=
EXTT8=
EXTT9=
EXTT10=
EXTT11=
EXTT12=
EXTT13=
EXTT14=
PLAYORDER=
